<?xml version="1.0"?>
<svg xmlns="http://www.w3.org/2000/svg" xmlns:xlink="http://www.w3.org/1999/xlink" xmlns:svgjs="http://svgjs.com/svgjs" version="1.1" width="512" height="512" x="0" y="0" viewBox="0 0 47.707 47.707" style="enable-background:new 0 0 512 512" xml:space="preserve" class=""><g transform="matrix(1,0,0,-1,0,47.707000732421875)">
<g xmlns="http://www.w3.org/2000/svg">
	<path style="" d="M26.561,40h-24c-0.552,0-1-0.447-1-1s0.448-1,1-1h24c9.925,0,18-8.075,18-18s-8.075-18-18-18h-24   c-0.552,0-1-0.447-1-1s0.448-1,1-1h24c11.028,0,20,8.972,20,20S37.588,40,26.561,40z" fill="#000000" data-original="#f0c419" class=""/>
	<polygon style="" points="9.854,47.707 1.146,39 9.854,30.293 11.268,31.707 3.975,39 11.268,46.293  " fill="#000000" data-original="#f0c419" class=""/>
</g>
<g xmlns="http://www.w3.org/2000/svg">
</g>
<g xmlns="http://www.w3.org/2000/svg">
</g>
<g xmlns="http://www.w3.org/2000/svg">
</g>
<g xmlns="http://www.w3.org/2000/svg">
</g>
<g xmlns="http://www.w3.org/2000/svg">
</g>
<g xmlns="http://www.w3.org/2000/svg">
</g>
<g xmlns="http://www.w3.org/2000/svg">
</g>
<g xmlns="http://www.w3.org/2000/svg">
</g>
<g xmlns="http://www.w3.org/2000/svg">
</g>
<g xmlns="http://www.w3.org/2000/svg">
</g>
<g xmlns="http://www.w3.org/2000/svg">
</g>
<g xmlns="http://www.w3.org/2000/svg">
</g>
<g xmlns="http://www.w3.org/2000/svg">
</g>
<g xmlns="http://www.w3.org/2000/svg">
</g>
<g xmlns="http://www.w3.org/2000/svg">
</g>
</g></svg>
